<mxfile host="Gemini" version="1.0">
  <diagram name="SNOW-Lifecycle" id="SNOW-Lifecycle-1">
    <mxGraphModel dx="1680" dy="960" grid="1" gridSize="10" guides="1" tooltips="1" connect="1" arrows="1" fold="1" page="1" pageScale="1" pageWidth="1800" pageHeight="1200" math="0" shadow="0">
      <root>
        <mxCell id="0" />
        <mxCell id="1" parent="0" />
        <mxCell id="title" value="SNOW (Snowfall) Variable Lifecycle" style="text;html=1;strokeColor=none;fillColor=none;align=center;verticalAlign=middle;whiteSpace=wrap;rounded=0;fontSize=24;fontStyle=1" parent="1" vertex="1">
          <mxGeometry x="200" y="20" width="1200" height="40" as="geometry" />
        </mxCell>
        <mxCell id="legend-box" value="" style="rounded=1;whiteSpace=wrap;html=1;strokeColor=#666666;fillColor=none;" parent="1" vertex="1">
          <mxGeometry x="20" y="80" width="200" height="120" as="geometry" />
        </mxCell>
        <mxCell id="legend-title" value="Legend" style="text;html=1;strokeColor=none;fillColor=none;align=center;verticalAlign=middle;whiteSpace=wrap;rounded=0;fontStyle=1;fontSize=16;" parent="1" vertex="1">
          <mxGeometry x="30" y="84" width="180" height="20" as="geometry" />
        </mxCell>
        <mxCell id="legend-source" value="" style="shape=cylinder3;whiteSpace=wrap;html=1;boundedLbl=1;backgroundOutline=1;size=15;strokeWidth=2;fillColor=#dae8fc;strokeColor=#6c8ebf;" parent="1" vertex="1">
          <mxGeometry x="30" y="110" width="20" height="20" as="geometry" />
        </mxCell>
        <mxCell id="legend-source-text" value="Data Source" style="text;html=1;strokeColor=none;fillColor=none;align=left;verticalAlign=middle;whiteSpace=wrap;rounded=0;" parent="1" vertex="1">
          <mxGeometry x="60" y="110" width="140" height="20" as="geometry" />
        </mxCell>
        <mxCell id="legend-process" value="" style="rounded=1;whiteSpace=wrap;html=1;fillColor=#d5e8d4;strokeColor=#82b366;" parent="1" vertex="1">
          <mxGeometry x="30" y="140" width="20" height="20" as="geometry" />
        </mxCell>
        <mxCell id="legend-process-text" value="Process / Code" style="text;html=1;strokeColor=none;fillColor=none;align=left;verticalAlign=middle;whiteSpace=wrap;rounded=0;" parent="1" vertex="1">
          <mxGeometry x="60" y="140" width="140" height="20" as="geometry" />
        </mxCell>
        <mxCell id="legend-file" value="" style="shape=document;whiteSpace=wrap;html=1;boundedLbl=1;fillColor=#fff2cc;strokeColor=#d6b656;" parent="1" vertex="1">
          <mxGeometry x="30" y="170" width="20" height="20" as="geometry" />
        </mxCell>
        <mxCell id="legend-file-text" value="File / Artifact" style="text;html=1;strokeColor=none;fillColor=none;align=left;verticalAlign=middle;whiteSpace=wrap;rounded=0;" parent="1" vertex="1">
          <mxGeometry x="60" y="170" width="140" height="20" as="geometry" />
        </mxCell>
        <mxCell id="source-data" value="ERA5 Reanalysis&lt;br&gt;&lt;b&gt;snowfall&lt;/b&gt;" style="shape=cylinder3;whiteSpace=wrap;html=1;boundedLbl=1;backgroundOutline=1;size=15;strokeWidth=2;fontSize=12;fontStyle=0;fillColor=#dae8fc;strokeColor=#6c8ebf;" parent="1" vertex="1">
          <mxGeometry x="80" y="350" width="180" height="80" as="geometry" />
        </mxCell>
        <mxCell id="downloader" value="ecmwf_downloader.py" style="rounded=1;whiteSpace=wrap;html=1;strokeWidth=2;fontSize=12;fillColor=#d5e8d4;strokeColor=#82b366;align=center;" parent="1" vertex="1">
          <mxGeometry x="340" y="350" width="180" height="80" as="geometry" />
        </mxCell>
        <mxCell id="downloaded-file" value="Downloaded NetCDF File(s)&lt;br&gt;&lt;b&gt;*.nc&lt;/b&gt;&lt;br&gt;(contains 'sf' variable)" style="shape=document;whiteSpace=wrap;html=1;boundedLbl=1;strokeWidth=2;fontSize=12;fillColor=#fff2cc;strokeColor=#d6b656;" parent="1" vertex="1">
          <mxGeometry x="600" y="350" width="180" height="80" as="geometry" />
        </mxCell>
        <mxCell id="processor-container" value="CBFMetProcessor Workflow" style="rounded=1;whiteSpace=wrap;html=1;strokeWidth=2;fontSize=14;fontStyle=1;align=center;verticalAlign=top;fillColor=#d5e8d4;strokeColor=#82b366;" parent="1" vertex="1">
          <mxGeometry x="860" y="220" width="240" height="340" as="geometry" />
        </mxCell>
        <mxCell id="step1" value="&lt;b&gt;1. Load Unified Dataset&lt;/b&gt;&lt;br&gt;_load_unified_era5_dataset()" style="rounded=0;whiteSpace=wrap;html=1;align=center;fillColor=#e6fffa;strokeColor=#006b57;" parent="processor-container" vertex="1">
          <mxGeometry x="20" y="40" width="200" height="50" as="geometry" />
        </mxCell>
        <mxCell id="step2" value="&lt;b&gt;2. Map Variable&lt;/b&gt;&lt;br&gt;'snowfall' -&amp;gt; 'SNOW'" style="rounded=0;whiteSpace=wrap;html=1;align=center;fillColor=#e6fffa;strokeColor=#006b57;" parent="processor-container" vertex="1">
          <mxGeometry x="20" y="100" width="200" height="50" as="geometry" />
        </mxCell>
        <mxCell id="step3" value="&lt;b&gt;3. Apply Unit Conversion&lt;/b&gt;&lt;br&gt;Units: 'm of water equivalent' -&amp;gt; 'mm/month'&lt;br&gt;(Multiply by 1000)" style="rounded=0;whiteSpace=wrap;html=1;align=center;fillColor=#e6fffa;strokeColor=#006b57;" parent="processor-container" vertex="1">
          <mxGeometry x="20" y="160" width="200" height="50" as="geometry" />
        </mxCell>
        <mxCell id="step4" value="&lt;b&gt;4. Apply Land Mask (Optional)&lt;/b&gt;&lt;br&gt;_apply_land_masking()" style="rounded=0;whiteSpace=wrap;html=1;align=center;fillColor=#e6fffa;strokeColor=#006b57;dashed=1;" parent="processor-container" vertex="1">
          <mxGeometry x="20" y="220" width="200" height="50" as="geometry" />
        </mxCell>
        <mxCell id="step5" value="&lt;b&gt;5. Merge &amp;amp; Write&lt;/b&gt;&lt;br&gt;_create_unified_cbf_file()" style="rounded=0;whiteSpace=wrap;html=1;align=center;fillColor=#e6fffa;strokeColor=#006b57;" parent="processor-container" vertex="1">
          <mxGeometry x="20" y="280" width="200" height="50" as="geometry" />
        </mxCell>
        <mxCell id="cbf-file" value="Final CBF Met File&lt;br&gt;&lt;b&gt;AllMet05x05_LFmasked.nc&lt;/b&gt;&lt;br&gt;(contains 'SNOW' variable)" style="shape=document;whiteSpace=wrap;html=1;boundedLbl=1;strokeWidth=2;fontSize=12;fillColor=#fff2cc;strokeColor=#d6b656;" parent="1" vertex="1">
          <mxGeometry x="1180" y="350" width="180" height="80" as="geometry" />
        </mxCell>
        <mxCell id="erens-code" value="erens_cbf_code.py&lt;br&gt;&lt;br&gt;• Extracts 'SNOWFALL' (alias for SNOW)&lt;br&gt;• Uses for snowpack, albedo, insulation" style="shape=parallelogram;perimeter=parallelogramPerimeter;whiteSpace=wrap;html=1;fixedSize=1;strokeWidth=2;fontSize=11;fontStyle=1;fillColor=#e1d5e7;strokeColor=#9673a6;align=center;" parent="1" vertex="1">
          <mxGeometry x="1440" y="340" width="220" height="100" as="geometry" />
        </mxCell>
        <mxCell id="arrow1" value="Download" style="edgeStyle=orthogonalEdgeStyle;rounded=0;orthogonalLoop=1;jettySize=auto;html=1;endArrow=classic;endFill=1;strokeWidth=2;" parent="1" source="source-data" target="downloader" edge="1">
          <mxGeometry relative="1" as="geometry" />
        </mxCell>
        <mxCell id="arrow2" value="Create File" style="edgeStyle=orthogonalEdgeStyle;rounded=0;orthogonalLoop=1;jettySize=auto;html=1;endArrow=classic;endFill=1;strokeWidth=2;" parent="1" source="downloader" target="downloaded-file" edge="1">
          <mxGeometry relative="1" as="geometry" />
        </mxCell>
        <mxCell id="arrow3" value="Process" style="edgeStyle=orthogonalEdgeStyle;rounded=0;orthogonalLoop=1;jettySize=auto;html=1;endArrow=classic;endFill=1;strokeWidth=2;" parent="1" source="downloaded-file" target="processor-container" edge="1">
          <mxGeometry relative="1" as="geometry" />
        </mxCell>
        <mxCell id="arrow4" value="Write" style="edgeStyle=orthogonalEdgeStyle;rounded=0;orthogonalLoop=1;jettySize=auto;html=1;endArrow=classic;endFill=1;strokeWidth=2;" parent="1" source="processor-container" target="cbf-file" edge="1">
          <mxGeometry relative="1" as="geometry" />
        </mxCell>
        <mxCell id="arrow5" value="Load" style="edgeStyle=orthogonalEdgeStyle;rounded=0;orthogonalLoop=1;jettySize=auto;html=1;endArrow=classic;endFill=1;strokeWidth=2;" parent="1" source="cbf-file" target="erens-code" edge="1">
          <mxGeometry relative="1" as="geometry" />
        </mxCell>
        <mxCell id="sub-arrow1" value="" style="endArrow=classic;html=1;rounded=0;" parent="processor-container" source="step1" target="step2" edge="1">
          <mxGeometry width="50" height="50" relative="1" as="geometry">
            <mxPoint x="120" y="100" as="sourcePoint" />
            <mxPoint x="120" y="150" as="targetPoint" />
          </mxGeometry>
        </mxCell>
        <mxCell id="sub-arrow2" value="" style="endArrow=classic;html=1;rounded=0;" parent="processor-container" source="step2" target="step3" edge="1">
          <mxGeometry width="50" height="50" relative="1" as="geometry">
            <mxPoint x="120" y="160" as="sourcePoint" />
            <mxPoint x="120" y="210" as="targetPoint" />
          </mxGeometry>
        </mxCell>
        <mxCell id="sub-arrow3" value="" style="endArrow=classic;html=1;rounded=0;" parent="processor-container" source="step3" target="step4" edge="1">
          <mxGeometry width="50" height="50" relative="1" as="geometry">
            <mxPoint x="120" y="220" as="sourcePoint" />
            <mxPoint x="120" y="270" as="targetPoint" />
          </mxGeometry>
        </mxCell>
        <mxCell id="sub-arrow4" value="" style="endArrow=classic;html=1;rounded=0;" parent="processor-container" source="step4" target="step5" edge="1">
          <mxGeometry width="50" height="50" relative="1" as="geometry">
            <mxPoint x="120" y="280" as="sourcePoint" />
            <mxPoint x="120" y="330" as="targetPoint" />
          </mxGeometry>
        </mxCell>
      </root>
    </mxGraphModel>
  </diagram>
</mxfile>
